<svg width="117" height="49" viewBox="0 0 117 49" fill="none" xmlns="http://www.w3.org/2000/svg">
<path d="M31.021 39.731C32.0483 40.7137 32.562 41.8303 32.562 43.081C32.562 44.3317 32.093 45.4483 31.155 46.431C30.2617 47.4137 29.212 47.905 28.006 47.905C26.8447 47.905 25.7727 47.436 24.79 46.498L10.117 32.897V43.148C10.117 44.7113 9.62567 45.895 8.643 46.699C7.705 47.503 6.52133 47.905 5.092 47.905C3.618 47.905 2.38967 47.503 1.407 46.699C0.469 45.895 0 44.7113 0 43.148V4.757C0 3.19367 0.469 2.01 1.407 1.206C2.38967 0.402 3.618 0 5.092 0C6.52133 0 7.705 0.402 8.643 1.206C9.62567 2.01 10.117 3.19367 10.117 4.757V28.743L23.517 15.544C24.4997 14.5613 25.594 14.07 26.8 14.07C28.0507 14.07 29.145 14.539 30.083 15.477C31.021 16.3703 31.49 17.4423 31.49 18.693C31.49 19.8543 30.9763 20.9487 29.949 21.976L21.038 30.485L31.021 39.731Z" fill="white"/>
<path d="M52.2422 48.106C48.8475 48.106 45.8772 47.4137 43.3312 46.029C40.7852 44.6443 38.8199 42.679 37.4352 40.133C36.0952 37.587 35.4252 34.5943 35.4252 31.155C35.4252 27.7157 36.1399 24.7007 37.5692 22.11C39.0432 19.4747 41.0979 17.4423 43.7332 16.013C46.3685 14.5837 49.4059 13.869 52.8452 13.869C54.6319 13.869 56.4185 14.1147 58.2052 14.606C60.0365 15.0973 61.6669 15.7897 63.0962 16.683C64.4809 17.5317 65.1732 18.7823 65.1732 20.435C65.1732 21.5963 64.9052 22.5567 64.3692 23.316C63.8332 24.0307 63.1185 24.388 62.2252 24.388C61.6445 24.388 61.0862 24.2987 60.5502 24.12C60.0589 23.8967 59.3889 23.584 58.5402 23.182C57.6022 22.6907 56.7535 22.311 55.9942 22.043C55.2795 21.775 54.4532 21.641 53.5152 21.641C51.0139 21.641 49.0932 22.445 47.7532 24.053C46.4579 25.6163 45.8102 27.9167 45.8102 30.954C45.8102 33.9913 46.4579 36.314 47.7532 37.922C49.0932 39.53 51.0139 40.334 53.5152 40.334C54.4532 40.334 55.2795 40.2223 55.9942 39.999C56.7089 39.731 57.5799 39.329 58.6072 38.793C59.4559 38.391 60.1259 38.1007 60.6172 37.922C61.1085 37.6987 61.6445 37.587 62.2252 37.587C63.0739 37.587 63.7662 37.9667 64.3022 38.726C64.8829 39.4853 65.1732 40.4457 65.1732 41.607C65.1732 43.2597 64.4809 44.488 63.0962 45.292C61.6669 46.1853 60.0142 46.8777 58.1382 47.369C56.2622 47.8603 54.2969 48.106 52.2422 48.106Z" fill="white"/>
<path d="M84.9476 13.869C89.7716 13.869 93.345 15.0527 95.6676 17.42C97.9903 19.7427 99.1516 23.316 99.1516 28.14V43.282C99.1516 44.756 98.7273 45.9173 97.8786 46.766C97.03 47.57 95.8463 47.972 94.3276 47.972C92.8983 47.972 91.737 47.5477 90.8436 46.699C89.995 45.8057 89.5706 44.6667 89.5706 43.282V42.813C88.9006 44.4657 87.784 45.761 86.2206 46.699C84.6573 47.637 82.826 48.106 80.7266 48.106C78.4933 48.106 76.461 47.6593 74.6296 46.766C72.843 45.8727 71.4136 44.622 70.3416 43.014C69.3143 41.406 68.8006 39.6193 68.8006 37.654C68.8006 35.242 69.4036 33.3437 70.6096 31.959C71.8603 30.5743 73.848 29.5693 76.5726 28.944C79.2973 28.3187 83.027 28.006 87.7616 28.006H89.5036V26.8C89.5036 24.924 89.0793 23.5617 88.2306 22.713C87.4266 21.8643 86.0643 21.44 84.1436 21.44C82.223 21.44 79.4536 22.11 75.8356 23.45C74.8083 23.9413 73.9373 24.187 73.2226 24.187C72.24 24.187 71.4583 23.852 70.8776 23.182C70.297 22.4673 70.0066 21.5517 70.0066 20.435C70.0066 19.5417 70.2076 18.8047 70.6096 18.224C71.0116 17.6433 71.6593 17.1073 72.5526 16.616C74.116 15.7673 76.0143 15.0973 78.2476 14.606C80.5256 14.1147 82.759 13.869 84.9476 13.869ZM82.9376 41.138C84.903 41.138 86.4886 40.4903 87.6946 39.195C88.9006 37.855 89.5036 36.1353 89.5036 34.036V32.897H88.3646C84.7466 32.897 82.2006 33.1873 80.7266 33.768C79.2973 34.3487 78.5826 35.3983 78.5826 36.917C78.5826 38.1677 78.9846 39.195 79.7886 39.999C80.6373 40.7583 81.687 41.138 82.9376 41.138Z" fill="white"/>
<path d="M111.808 47.972C110.334 47.972 109.105 47.57 108.123 46.766C107.185 45.962 106.716 44.7783 106.716 43.215V4.757C106.716 3.19367 107.185 2.01 108.123 1.206C109.105 0.402 110.334 0 111.808 0C113.237 0 114.421 0.402 115.359 1.206C116.341 2.01 116.833 3.19367 116.833 4.757V43.215C116.833 44.7783 116.341 45.962 115.359 46.766C114.421 47.57 113.237 47.972 111.808 47.972Z" fill="white"/>
</svg>
